<svg xmlns="http://www.w3.org/2000/svg" xmlns:xlink="http://www.w3.org/1999/xlink" width="500" zoomAndPan="magnify" viewBox="0 0 375 187.499995" height="250" preserveAspectRatio="xMidYMid meet" version="1.0"><path fill="#ff003e" d="M 363.765625 48.847656 C 362.96875 40.949219 356.648438 34.640625 348.464844 33.527344 C 340.550781 32.464844 334.015625 36.601562 331.148438 44.449219 C 328.386719 52.136719 325.941406 60.089844 323.605469 67.777344 C 322.59375 71.011719 321.640625 74.296875 320.628906 77.53125 C 319.089844 82.359375 317.601562 87.183594 316.113281 92.007812 L 314.839844 96.035156 L 314.679688 96.035156 L 313.03125 91.476562 C 311.597656 87.449219 310.164062 83.417969 308.675781 79.441406 C 307.507812 76.261719 306.339844 73.078125 305.171875 69.898438 C 301.878906 60.9375 298.476562 51.660156 294.8125 42.644531 C 292.367188 36.65625 287.164062 33.367188 279.992188 33.367188 C 272.871094 33.421875 267.773438 36.65625 264.851562 43.070312 C 263.417969 46.199219 262.246094 49.007812 261.292969 51.660156 C 257.199219 63.003906 253.109375 74.351562 249.074219 85.699219 L 245.355469 96.089844 L 244.984375 96.089844 L 244.453125 94.5 C 243.8125 92.644531 243.175781 90.734375 242.539062 88.824219 C 241.050781 84.265625 239.5625 79.652344 238.078125 75.039062 C 234.941406 65.285156 231.648438 55.210938 228.300781 45.351562 C 225.753906 37.875 220.121094 33.367188 213.214844 33.367188 C 213.109375 33.367188 213.003906 33.367188 212.898438 33.367188 C 212.789062 33.367188 212.738281 33.261719 212.632812 33.261719 L 138.789062 33.261719 C 138.257812 33.261719 137.832031 33.632812 137.78125 34.109375 C 137.726562 34.585938 137.992188 35.066406 138.472656 35.222656 L 195.3125 52.082031 L 49.597656 52.082031 C 49.066406 52.082031 48.640625 52.507812 48.585938 53.039062 C 48.585938 53.726562 48.960938 54.152344 49.492188 54.257812 L 197.703125 73.925781 L 11.984375 73.925781 C 11.453125 73.925781 11.03125 74.351562 10.976562 74.882812 C 10.921875 75.410156 11.296875 75.890625 11.828125 75.941406 L 208.914062 105.316406 L 88.589844 105.316406 C 88.058594 105.316406 87.632812 105.6875 87.578125 106.214844 C 87.527344 106.746094 87.898438 107.222656 88.375 107.328125 L 220.652344 131.878906 L 142.242188 131.878906 C 141.710938 131.878906 141.285156 132.25 141.234375 132.777344 C 141.179688 133.253906 141.5 133.785156 141.976562 133.890625 L 239.351562 157.910156 C 239.828125 158.070312 240.308594 158.175781 240.785156 158.28125 L 241.796875 158.492188 C 241.902344 158.492188 241.953125 158.546875 242.0625 158.546875 C 242.0625 158.546875 242.0625 158.546875 242.113281 158.546875 C 243.015625 158.652344 243.921875 158.757812 244.875 158.757812 C 252.207031 158.757812 257.308594 155.363281 259.964844 148.632812 C 262.9375 141.15625 265.859375 133.679688 268.78125 126.203125 L 270.535156 121.699219 C 272.554688 116.5 274.570312 111.304688 276.804688 105.6875 L 279.882812 97.785156 C 280.097656 98.210938 280.257812 98.632812 280.414062 99.003906 C 281.210938 100.753906 281.742188 102.027344 282.273438 103.300781 C 284.1875 108.070312 286.101562 112.84375 287.960938 117.613281 C 291.941406 127.742188 296.085938 138.1875 300.390625 148.417969 C 303.207031 155.097656 308.890625 159.074219 315.6875 159.074219 C 317.707031 159.074219 319.726562 158.703125 321.691406 157.960938 C 328.386719 155.523438 330.988281 149.585938 332.847656 144.285156 C 341.878906 118.675781 351.226562 91.582031 362.332031 58.976562 C 363.179688 56.324219 364.136719 52.507812 363.765625 48.847656 Z M 363.765625 48.847656 " fill-opacity="1" fill-rule="nonzero"/></svg>